<svg id="Layer_1" data-name="Layer 1" xmlns="http://www.w3.org/2000/svg" viewBox="0 0 100 100"><defs><style>.cls-1{fill:#f1f2f2;}</style></defs><rect class="cls-1" width="100" height="100"/><path d="M72.87,38.54c.21-.15.31-.35.17-.56q-7.64.12-15.27-.17l6.77-19.46a5,5,0,0,1,1.4-2.4c1.19-.91,2.87-.56,4.31-.17L81.07,18.7c2.84.77,5.83,1.54,8.7.88s5.53-3.29,5.14-6.21c-10.84,4.25-23-.19-34.64.27C46.59,14.17,33.52,22,26.06,33.46S16.72,59.75,20.5,72.91c-6.09-.66-10.86-6.15-12.23-12.12s.07-12.25,2.35-17.94a5,5,0,0,0,.52-2.29,1.87,1.87,0,0,0-.49-1.05,1.41,1.41,0,0,0-.46-.34.52.52,0,0,0-.44-.05.89.89,0,0,0-.31.3l-.35.48c-.24.33-.48.67-.71,1s-.44.7-.65,1.06-.4.72-.58,1.09-.36.74-.53,1.12-.32.77-.46,1.15-.28.78-.4,1.18-.23.79-.34,1.19-.19.81-.27,1.22S5,49.73,5,50.14s-.1.82-.14,1.23,0,.83-.07,1.24,0,.83,0,1.24,0,.83.07,1.24.08.82.14,1.23.13.82.21,1.22.17.81.28,1.21a22.49,22.49,0,0,0,13.2,14.93A10.08,10.08,0,0,1,21.35,75a10,10,0,0,1,1.92,2.54A21.19,21.19,0,0,0,37.44,87a3.72,3.72,0,0,0,2.29-.14,1.45,1.45,0,0,0,.73-1.94,2.3,2.3,0,0,0-1.67-.75A23.86,23.86,0,0,1,23,74.16c8.9.91,17.56-4.26,23.11-11.28S54.62,47.2,57.29,38.66q7.37.15,14.74.14A1.54,1.54,0,0,0,72.87,38.54ZM53.55,27.65c-.57,1.43-1,2.91-1.47,4.39-.33,1.1-.78,2.6-.84,2.72-.44.87-.44,1.3-1.08,2.9-.09.23-.79.18-1.2.18l-6.42.06a.65.65,0,0,0-.19,0c-.15.09-.08.33,0,.46a1.57,1.57,0,0,0,1.07.29l6.34.16c-.8,3.29-1.7,6.56-2.76,9.77-3.4,10.28-10,22.07-21.89,23.55l-2.8.46c-3.58-13-1.93-27.6,5.4-38.93s20.48-19,34-18.66A39.91,39.91,0,0,0,58,19.52,39.39,39.39,0,0,0,53.55,27.65Z"/></svg>